<svg viewBox="100 100 850 850" fill="none" xmlns="http://www.w3.org/2000/svg"><path d="M576 192v64H352A160 160 0 0 0 192 416v192A160 160 0 0 0 352 768h320A160 160 0 0 0 832 608v-192h64v192a224 224 0 0 1-224 224h-320A224 224 0 0 1 128 608v-192A224 224 0 0 1 352 192H576z m73.344 217.344l45.312 45.312-3.52 3.456-39.168 39.168-12.608 12.608L637.248 512l57.408 57.344-45.312 45.312-80-80a32 32 0 0 1 0-45.312l17.28-17.28 20.096-20.032 21.12-21.184 3.84-3.712 14.208-14.272 3.456-3.52zM432 416v192H352v-192h80z m351.488-292.032c8.128 31.168 21.824 56.192 41.088 75.52 19.2 19.2 44.288 32.896 75.52 41.024 15.872 4.16 15.872 26.816 0 30.976-31.232 8.128-56.32 21.824-75.52 41.088-19.2 19.2-32.96 44.288-41.088 75.52-4.16 15.872-26.816 15.872-30.976 0-8.128-31.232-21.824-56.32-41.088-75.52-19.2-19.2-44.288-32.96-75.52-41.088-15.872-4.16-15.872-26.816 0-30.976 31.232-8.128 56.32-21.824 75.52-41.088 19.2-19.2 32.96-44.288 41.088-75.52 4.16-15.872 26.816-15.872 30.976 0z" fill="currentColor" /></svg>
