<svg viewBox="0 0 24 24" fill="none" xmlns="http://www.w3.org/2000/svg"><path d="M14.5 3C14.7652 3 15.0196 3.10536 15.2071 3.29289C15.3946 3.48043 15.5 3.73478 15.5 4V7C15.5 7.26522 15.6054 7.51957 15.7929 7.70711C15.9804 7.89464 16.2348 8 16.5 8H19.5C19.7652 8 20.0196 8.10536 20.2071 8.29289C20.3946 8.48043 20.5 8.73478 20.5 9V11.5C20.5 12.163 20.2366 12.7989 19.7678 13.2678C19.2989 13.7366 18.663 14 18 14C17.337 14 16.7011 13.7366 16.2322 13.2678C15.7634 12.7989 15.5 12.163 15.5 11.5V11H8.5V14.5C8.5 15.163 8.23661 15.7989 7.76777 16.2678C7.29893 16.7366 6.66304 17 6 17C5.33696 17 4.70107 16.7366 4.23223 16.2678C3.76339 15.7989 3.5 15.163 3.5 14.5C3.5 13.837 3.76339 13.2011 4.23223 12.7322C4.70107 12.2634 5.33696 12 6 12H8.5V4C8.5 3.73478 8.60536 3.48043 8.79289 3.29289C8.98043 3.10536 9.23478 3 9.5 3H14.5Z" stroke="currentColor" stroke-width="2" stroke-linecap="round" stroke-linejoin="round" /><path d="M8.5 11H14.5C14.7652 11 15.0196 11.1054 15.2071 11.2929C15.3946 11.4804 15.5 11.7348 15.5 12V19C15.5 19.2652 15.3946 19.5196 15.2071 19.7071C15.0196 19.8946 14.7652 20 14.5 20H9.5C9.23478 20 8.98043 19.8946 8.79289 19.7071C8.60536 19.5196 8.5 19.2652 8.5 19V11Z" stroke="currentColor" stroke-width="2" stroke-linecap="round" stroke-linejoin="round" /></svg>
